<?xml version="1.0" encoding="UTF-8"?>
<svg id="Capa_1" xmlns="http://www.w3.org/2000/svg" viewBox="0 0 192 49.3">
  <path d="M170.18,37.93v9.88c-3.35.03-6.51-.64-9.53-1.95-4.31-1.87-7.8-4.75-10.44-8.64-5.28-7.8-5.46-17.97-.51-25.88C155.17,2.59,164.35-.26,170.17.02v9.82c-4.73.19-8.6,2.06-11.4,5.93-2.02,2.8-2.84,5.97-2.53,9.39.59,6.62,5.92,12.52,13.94,12.77Z"/>
  <path d="M192,41.03h-9.8v-11.56c-1.99-.03-3.9,0-5.82-.01-1.89,0-3.79,0-5.66,0-.16-.62-.19-9.03-.04-9.85h21.32v21.42Z"/>
  <path d="M118.85,37.42h-4.88V9.46h4.86v10.07c.27-.2.42-.31.56-.43,2.67-2.3,6.87-2.63,9.85-.74,1.93,1.23,2.99,3.04,3.42,5.25.13.69.19,1.41.2,2.11.02,3.67,0,7.34,0,11.01,0,.22-.03.44-.05.69h-4.81c-.01-.28-.04-.54-.04-.81,0-3.26.01-6.53-.01-9.79,0-.67-.09-1.37-.26-2.02-.42-1.61-1.53-2.52-3.15-2.78-.86-.14-1.72-.09-2.56.16-1.75.51-2.94,2-3.11,3.9-.03.33-.03.66-.03.99,0,3.16,0,6.33,0,9.49,0,.27,0,.54,0,.88Z"/>
  <path d="M91.29,29.55h-15.21c.45,1.55,1.24,2.71,2.59,3.42,1.75.92,3.56.94,5.34.14.84-.38,1.58-.98,2.36-1.49.23-.15.42-.36.61-.51,1.07,1.11,2.11,2.19,3.2,3.32-.06.07-.24.27-.44.46-2.69,2.43-5.88,3.37-9.45,3.11-1.88-.14-3.62-.68-5.18-1.75-2.22-1.53-3.52-3.67-4.01-6.29-.49-2.62-.2-5.15,1.11-7.5,1.67-3.01,4.26-4.71,7.67-5.2,1.61-.23,3.19-.1,4.72.42,3.37,1.14,5.35,3.59,6.31,6.93.44,1.52.54,3.08.47,4.66,0,.07-.04.14-.09.3ZM86.27,25.51c-.42-1.64-1.25-2.86-2.75-3.56-.9-.41-1.84-.51-2.82-.45-2.15.12-3.92,1.47-4.58,3.51-.05.15-.04.32-.06.5h10.21Z"/>
  <path d="M50.79,17.74v3.9c-.43.17-.86.35-1.32.54.05.12.08.21.13.3,3.47,5.56.48,14.44-7.9,15.45-3.5.42-6.6-.55-9.05-3.11-2.82-2.93-3.58-6.47-2.44-10.33,1.13-3.81,3.81-6.11,7.64-7.07,1.83-.46,3.66-.37,5.47.14.38.11.79.17,1.19.17,1.82.02,3.64,0,5.46,0,.25,0,.49,0,.82,0ZM46.03,27.58c0-3.22-2.45-5.67-5.67-5.67-3.18,0-5.63,2.45-5.63,5.63,0,3.23,2.44,5.71,5.63,5.71,3.23,0,5.67-2.44,5.67-5.67Z"/>
  <path d="M6.79,27.57c0-5.88,4.66-10.45,10.64-10.44,5.96,0,10.63,4.6,10.63,10.47,0,5.86-4.68,10.44-10.65,10.44-5.97,0-10.62-4.58-10.61-10.46ZM17.4,33.25c3.23,0,5.68-2.44,5.68-5.65,0-3.22-2.44-5.68-5.66-5.69-3.17,0-5.64,2.44-5.65,5.62-.02,3.22,2.44,5.72,5.63,5.72Z"/>
  <path d="M111.98,20.98c-1.14,1.18-2.21,2.28-3.32,3.43-.2-.19-.39-.37-.59-.56-1.17-1.11-2.52-1.85-4.17-1.94-3.38-.18-6.06,2.47-5.91,5.86.12,2.71,1.79,4.81,4.33,5.35,1.75.37,3.37,0,4.82-1.06.53-.38,1-.84,1.47-1.24,1.08,1.11,2.17,2.22,3.26,3.34.06-.03.11-.06.17-.09-.14.17-.26.36-.41.52-2.47,2.59-5.51,3.67-9.05,3.36-2.54-.22-4.76-1.2-6.53-3.04-2.83-2.92-3.67-6.43-2.57-10.3,1.11-3.88,3.78-6.3,7.69-7.19,3.9-.89,7.36.08,10.25,2.91.21.21.4.45.56.62Z"/>
  <path d="M67.54,11.72v6.02h2.65v4.38h-2.64v15.27h-4.88c-.08-1.69-.03-3.38-.04-5.06,0-1.69,0-3.39,0-5.08v-5.13h-2.62v-4.36h2.6c.03-2.05,0-4.03.02-6.05h4.9Z"/>
  <path d="M4.8,37.41H0V9.46h4.8v27.95Z"/>
  <path d="M29.81,38.83h4.88c.11,1.87.82,3.44,2.36,4.55,1.13.82,2.41,1.15,3.8,1.04,2.41-.19,4.96-1.96,5.19-5.48.51-.17,3.91-.21,4.97-.05-.11,3.53-1.47,6.44-4.43,8.41-3.84,2.56-7.89,2.64-11.89.35-3.8-2.18-5.12-6.37-4.87-8.82Z"/>
  <path d="M53,37.39v-19.52c.54-.15,3.67-.19,4.75-.07.15.55.21,18.11.07,19.53-.53.15-3.65.19-4.82.05Z"/>
  <path d="M52.16,12.17c-.01-1.82,1.36-3.25,3.15-3.28,1.9-.03,3.35,1.37,3.36,3.24,0,1.82-1.43,3.24-3.28,3.24-1.8,0-3.22-1.39-3.23-3.2Z"/>
</svg>